<mxfile host="65bd71144e">
    <diagram id="5B1MlHIZE8UZlNnkBuPE" name="Page-1">
        <mxGraphModel dx="1386" dy="644" grid="0" gridSize="10" guides="1" tooltips="1" connect="1" arrows="1" fold="1" page="1" pageScale="1" pageWidth="2339" pageHeight="3300" math="0" shadow="0">
            <root>
                <mxCell id="0"/>
                <mxCell id="1" parent="0"/>
                <mxCell id="4" value="Kafka Cluster" style="shape=image;verticalLabelPosition=bottom;labelBackgroundColor=default;verticalAlign=top;imageAspect=0;image=data:image/png,iVBORw0KGgoAAAANSUhEUgAAAHYAAAC5CAIAAABye1wnAAAAAXNSR0IArs4c6QAAAARnQU1BAACxjwv8YQUAAAAJcEhZcwAADsMAAA7DAcdvqGQAAAASdEVYdFNvZnR3YXJlAEdyZWVuc2hvdF5VCAUAABLXSURBVHhe7Z17UFXV28ff3zTTv03/OPWHzjTNxExl421MtJ+T4OQFYSJN8ZY6Qyoq490ERajEu5LlDQ1JZRA1oRQVECTTIpWLFw5KibdMBQy8koLQ+7ycb7zHc9nrWWvvfTj75Ocv5Zzvs/b6nnP2uuy1nvU/fz/DZJ5ZbDqmW3z9+vXTp0//8ssvRUVFZafLrl271tzcjNf+HRhvcdOTJ7m5ufPnz+/bt+9/PBAYGDh79mx688OHD+0qP8ZIi8vKymbNmgUX2UyZMuXnop8Rwh8xxuIzZ86M/WgsPFMiPDyc7iQI518YYPHixYvhk27mzZvX0NCAuP6CLottNltQUBDsMYguXbpQ24gC/AJ1i/Py8uCKCezZswfFWB9Fi7/77juYYRpbU7eiMIujYrGp319HMjIyUKSVkba4vLwcBniFY8eOoWDLIm3xu+++i9p7hYCAgPr6epRtTeQs/vTTT1F1LzJt2jQUb00kLKbBGyrtdfLz83ERFkTC4pEjR6LG7QEuwoJwLabhAOoqAw38SNg21/PXX3+VlJSsXLkSL8tw8OBBexDLwbV46tSpqCuPpUuXPn78GGJ3bNiwAW/lER4eDqXVYFl87949VJQHdZyh1OTkyZMQ8Lh06RKUloJl8d69e1FLBlITZufPn4eMwcaNGyGzFCyLo6KiUEsR27Ztg4YN3WQhFhEaGgqNpWBZjCqKCAkJgUCSyMhIhBABgaUQW1xTU4P6icjOzoZGkhMnTiCECJvNBo11EFvM765BoARCiDhw4AAE1kFs8ffff4/6aTJ06FAIlIiOjkYgTbZs2QKBdRBbTC0Y6qdJbGwsBEp8+eWXCKQJDVsgsA5ii+mLg/ppsmzZMgiU2Jq6FYE0oeEiBNZBbDGz8gkJCRAosWnTJgTSROcH2S6ILWaOOyZMmACBEjExMQikiRVHH2KLjx07hvqJgECJ/v37I4omezMzIbAOYosvX7mC+ok4deoUNJLwizh58iQ01kFsMYH6iVB+PPHZZ58hhIh79+5BYx1YFlOfF1UU8dNPP0HDRmomCBpLwbI4OTkZVWTw559/Qsagubl50KBBUIqgLztkloJlcVVVFWrJ4/bt21Bq0tLSMm7cOGgYWHQhFstiYsiQIagojx9//BFKD5SWlgYHB+PdDHr27Aml0TQ2NpaXl+fk5KSlpW3evJmGWjt37jycf/hC5QW8Qx9ci7OyslBXNpGRkW4XmtCXcfr06XgTG8NnJ4qLi5csWSL8mMPCwtauXUsNBmTycC0mevXqhWIlGTx4MA1MyPHQ0FD8SZ6mpiZchz7o7pSyNaV3796Iy4baDBqFIYoMEhZ7YamgJ1JSUnAR+khNTUVEVeh+RT4gHA8Ji4lRo0ahKC8yYMAAFK+Ds2fP6vkNOTFmzJjff/8doUXIWcwfhhlISUkJildl+/btiGUcHTp0oBYSBWgiZzGh0O7p4euvv0bBqvCHjgpwLk/aYiIpKQklmMyCBQtQpCqffPIJYpkGSvKMisVEfHw8SjAN/QsyTf3+OvLNN9+gSHcoWkwsXboUJZjA3LlzUYwqVG3E8gpHjx5FwS6oW0yY0YwQ69atQwGqlJ329jrdgICAO3fuoPin0WUxQZWhThXK0c3bb799/PhxhNYBf2rJQGbOnInin0avxXZoaI9ydLB69WqE0wcN3hDR6+AKnsYYi4mHDQ/pB/7666+jNDadOnVavnx5bW0tAumj6ckTxJWnR48eNDyh4T7+L4/bVXeGWdxGYWEhNVYoU5Pp06cze+98qKOK6GxGjBhx8ODB+/fvI0QrFyovpKenK+yNdZ35Mt5iO48fP0aZHrh+/Treaih0N0cBPA7nH4bSA2Q03sojMjISyn/wK4uldkuEhYXV1ddBqYnNZoOGR13dU2H9ymKpPWtSKQPOX5B4wOi0gduvLEZoBtTXhIZNZlYmxCKioqKgacV/LK6vr0doEXFxcdBIMnz4cIQQAUEr/mNxUVERQotQ3paTn5+PECIc7/L+YzG/6YdACYQQUVb2/zci/7GYBocIrYnOFaQffPABAmniuC3OfyymOyxCa6I98SiEOar69ttvIfAni+fPn4/QmjhWXgHmRPnOnTsh+Bd+i3Xmw5k5cyYCaeK4HMB/LF6zZg1Ca7Jw4UIIlAgJCUEgTfIOm3YvbmpqKiwsXLJkCQ1PUZoHQkNDaTBGzYJROR0zMjIQWgQE8jxp5k7jnTlzBhoDLT506FBkZOTzzz+PQmQYOXIkjZ0QSBX+BAWNhqGRZN++fQgh4u7du9Dot7ixsXHjxo0K08SudOzYcdWqVZ4ezwjhpxuYM2cONJIw7xJvvfUWBK3ospi5mUkW5Wd3/NRQCkvN09LSIBYRHR0NTSuKFhcXFw8cOBAhTSAwMFDjma4n+A/FO3fufOvWLcgYlJSUQMnA6aanYrFsQhRlqNlEkSIqKipGjx4NGY++ffteuXoFek2kpqEJpwcocha3tLRMmTIFkbzC8OHDtfO0PXr0SE/qWeF6VqlNGAT5A+U/SFhcV1dn4OJGPr169aqqqsJFPM3u3bvxJh0EBQWlpqbSrQ9BWzly5AhzQ6sTrrsluBaTv/369UOY9uDXX3/FpbRy6tSpdvm8tRk2bBiuzwGWxfRTfee/7yBM+3Hz1k26GPqwvbAYUI0TJ07YHXOEZTFzBs8LGLImxiTi4+Ph19OILY6NjUWMZ2jy2ENeOoHF/GeC/3LOnj0Ly1zQsri2thYBrInX2g/t/AJaFjPnRrXp2rXr0KFDJ02aNHny5A8//LBHjx54wWTsKzxp8IL/m4YwNZ1Hi2WHNE6M/Wjsvn373C63ocFPTk4OOY63Gg11clFSK8ysQ2pwnqF4tJi/ZsCJqKgo5mwhjV9nz54NmREsWLDA7USdGTsG+YdjuLdYNmFoGwp51I4ePfrmm29Crwp1K0tLSxHRHZcvXzYw//KcOXP467XcWzxt2jQEk0F5Ccjt27dlt7E7ws9mk5WVJbt00xXZiVA3FtNvDcFkqKmpgV6JpidPmBPejixbtoyECMGGeqIKZVHrUlhYiBAyuLF4586diMqmsrISYh3QhyT79CQpKQlieeg3t2XLFuHdY+LEiWSIni+QG4tl71k6VyY4cuTIEQTl0a9fPyj1QQ6WlZUVFBRkZ2dTc0LfVhpKGHXYhbPFLS0tuHwe1PGA0iBmzJiB0Dyqq6uh9FWcLebnubVj+GmAFy9eRGgevp/G39li2e0okBnK+PHjEZ1BYmIiZL6Ks8VSJ1vq32bvlv3796MABhEREZD5Ks4WS/VPjUpQ5AR/vTvRvXt3yHwVZ4u7du2Kaxfx4osvQmMC3bp1QzEMoPFVnC1++eWXceEi+vTpA40JSM2QNDY2QuaTOFuMq2YQFhYGjQlIjeAdF5D5IOoW60wer43UVLVRYwSTULd48ODB0JjAxx9/jGIY+PiR6M4Wv/rqq7hwEW+88QY0JiC1nR4aX8XZYqnnXQ8ePIDMaF566SWUwQAaX8XZYqnFdz/88ANkhlJRUYECGLz33nuQ+SrOFkstwYuJiYHMUKSetvn+yaTOFss+5lKYEReC0Dw2b94Mma/ibPGVq3IpGw2voexnrHxGgNdwtpjAtbNR3p3hlp49eyIuD8h8GDcWL1y4EJfPY8aMGVDqRnYxts7zWohLly5lZmUmJiZST5zGq0FBQcHBwaGhoZMnT16xYkV2dvYff/yBt6rixmKFRSqGzGoqrJ9z2lXBp7S0lJ+Tsk+fPqtWrfK0jFyIG4uJ7t27Izyb3bt3Q6xEbm4uAkkie17NgQMHFB4/2xk/frzC2S3uLVZbg79+/XroJdmxYwdCKCFcp2KHGkY9qzXakO0mureYhm0vvPACQsow9qOxUgtWbt66qbYsxpXY2FiN+SC6seJ9BpGWlobQItxbTNDdB8HkiYuLc0wr4pZr166ZkTvWdaM+dXhGjBiBlw1l3rx5KEMTjxY/evQIkVQZPHjw6tWr8/PzKysrq6ura2pqfvvtNxpz0+BNuAldJ22nitAHSY0V/moCI0eOfNIsGHx5tJgwZMtVe0H3n+LiYtletgJudyk5omUxQfdWRHqGZ7QbQIHF1Bx17NgRkZ7hGY3jJAUWE/zkZP9yPK3oFltMpKS0W9JlR9auXVtXV8dMs9QuwK+nYVlM6OnDGcKiRYtwKa2DCLP7JGq4PWuLazHBzDVnBm7P8d6zZw9eNgJq2JOSktLT02mouXLlSuWtLs3Nzbi+f5CwmGAeu20sNDBD8S40Njbq3/bllAu3jXv37ilMJLim2pOzmMjNze3QoQPimcxzzz3HmV26UHlBrXPJOf2G+lRSh3e5riqXtpigIVNERARCmkZISIjNZkORDA4dOgQlD2o8oWQgtXSmoqICslZULLZj0rkpdtROLY+KioJehMLpN++//z7EIpzSR6lbTNy/f9/wHbD045VKjOTIK6+8gigiPO2616CyshJiEeHh4dC0ostiO/X19V999RV/1axbXnvtNWrWbty4gaDy8M/iE+5a9gR9/AghAoJWDLC4DRreJCQkBAYGohwG3bp1i4mJUcgX5kpeXh6CilBeLHvu3DmEEOF4pqORFrdRW1ubd1hQ4YyMjJs3/y8RjVEwO5SjR4+GQAlEEVFUVASBSRYT3s/8mpiYiNCarFmzBgIlJkyYgECa7N+/HwJ/spiZYMcxebMCzCzJjt15/7GY7ukIrYnOJ+XMSSi6DULgTxZ//vnnCK3Jhg0bIFCCOeZyPCvafyym0QpCa6JzJSeiiHA8L8x/LOZviIRAnurqaoQQcfHiRWj8yeLz57knTeXm5kIjCfOHQkDQiv9YTCC0iEGDBkEgA3/Vg9PCfb+ymD//t2nTJmjYMHssxOLFi6Fpxa8s3rZtG6IzkMqyIJXgwHFoR/iVxTU1NYjOgzkMkTog33WvnCkWNzQ0CCdl0tPTzdhYO3HiRBTAY8qUKRpZ5X4u+ll2MafrAN1gi6nnJLWtbOjQoZ4enamhliSRLiM5Ofn48eM2m+3s2bN5h/PoL3hNEtdETYZZnLI1RTmjXadOndatW+f67FYNqUdtxuLU0NkxwGIDlwtlZWUhqA5Onz6NcF4HV/A0ei1mzjzxmT59OjWViK7KsmXLEM6LeNoSoW4xjSYNWdfvyjv/fUd/bj2Trs0TM2fORMEuKFpcVVWlsOVGipKSEhSmBP9Rnn4GDhyIUt2hYvGNGzcQ22TKy8tRpBL8M3V1or03T9piavcHDBiA2CbTpUuX27dvo2AlqB+GWKZx+fJlFOYBaYupOUJsrzBixAgUrAp1MKTyZfEJCQnhpJOUs3jXrl0I70WUt/O1QcPISZMmIZxB8A/YlLC4rr4O4b2O4wy3MgYulnU8WlSIhMWGd4H5uB6/pcadO3f0rBALCAhQ2O3Ntfj69esoR5IVK1bk5ORQD6y0tJQ+/KSkJLWzCMtOC/ZK8nnw4AEN96Ua7WHDhilvaedaLPvhU1Pg+IjQieLiYtkdnQamZHCEhmQxMTF0tU4JwDt37hweHp6QkJCdnV1X5+boDD5ci/mLHgn6PCDTRPa0PqfTEM2gpaUF/zIOlsWFhYWoJQMyDjIGUk2QgRnVvQnLYv5hYfPnz4eGDX+XTmRkJDSWgmUxfz3ro0ePoJGBn38PAkshtvjhw4eonwipW4Qj/JQ1zDNvfQqxxWfOnEH9ROiZT0AIEQUFBRBYB7HF1KtF/TTRmVhxzJgxCKSJ8h6CdkRscXp6OuqnicacNIfly5cjkCZ6jqNpL8QWM1dpMPvCnmDuZPf9IyZcEVvsncp754NsF8QWZ2RkoH6aREdHQ6AEc6eG1JZPH0FssXDvkR3q20KgxLBhwxBIE2oYILAOYov5CZuvXr0KjSQNDQ0IIaItdZWFEFvc1NSE+onQyGqgTWpqKkKI0LO9tL0QW0wEBwejiiIULBCu4XQEGkvBspjZFhHjxo2Dhs3cuXMhFqGzRW0vWBZLLXd0m2TGE1LJcBSO5/UFWBYTUs/Jp06dyjnORPZhoBnz5V6Aa/H69etRUTbbt2/3ZMreTOls0PHx8RBbDa7F9+/fR10lmThx4oYNG8jTzKzM5ORk+oLjBUkuX7HeNKYdrsXEF198gep6Hf66EB9EwmICNfY6dfW6ngG3L3IWFxQUoNJexNjNIN5HzmLCjNTZGsyaNQsFWxZpiwmpQ4T1EBISgiKtjIrFzc3N3skKqnNxsY+gYjFx9+5d+orBCRPo3bu3FR82u0XRYoKGFfzsflIMHz7cx48TlULdYjtqh6xooDwj6rPotZiw2WyGHJwxZMiQEydOIKgfYYDFdvIO5ylvdevfv79jviI/wzCL7ZSVlS1atAjOMZg7d66nLPd+g8EWt3Gh8sKuXbvi4uJGjRpFX1K7ocHBwREREbGxsTt27Dh37hze6u+YZfEz2nhmsek8s9hk/v77fwGq5YGbJjHTfQAAAABJRU5ErkJggg==;fontSize=18;" vertex="1" parent="1">
                    <mxGeometry x="554" y="171" width="118" height="185" as="geometry"/>
                </mxCell>
                <mxCell id="5" value="&lt;font style=&quot;font-size: 20px;&quot;&gt;Data Source&lt;/font&gt;" style="ellipse;whiteSpace=wrap;html=1;aspect=fixed;fillColor=#fff2cc;strokeColor=#d6b656;gradientColor=#ffd966;" vertex="1" parent="1">
                    <mxGeometry x="291" y="198.5" width="130" height="130" as="geometry"/>
                </mxCell>
                <mxCell id="6" value="&lt;font style=&quot;font-size: 20px;&quot;&gt;Data Sink&lt;/font&gt;" style="ellipse;whiteSpace=wrap;html=1;aspect=fixed;fillColor=#dae8fc;strokeColor=#6c8ebf;gradientColor=#7ea6e0;" vertex="1" parent="1">
                    <mxGeometry x="810" y="198.5" width="130" height="130" as="geometry"/>
                </mxCell>
                <mxCell id="9" value="&lt;font style=&quot;font-size: 20px;&quot;&gt;Kafka Connect&lt;br&gt;&lt;/font&gt;" style="text;html=1;align=center;verticalAlign=middle;whiteSpace=wrap;rounded=0;fontSize=18;rotation=0;" vertex="1" parent="1">
                    <mxGeometry x="416" y="197" width="127" height="58" as="geometry"/>
                </mxCell>
                <mxCell id="13" value="" style="shape=singleArrow;whiteSpace=wrap;html=1;fontSize=20;fillColor=#d5e8d4;gradientColor=#97d077;strokeColor=#82b366;" vertex="1" parent="1">
                    <mxGeometry x="428" y="234.5" width="124" height="58" as="geometry"/>
                </mxCell>
                <mxCell id="16" value="&lt;font style=&quot;font-size: 20px;&quot;&gt;Kafka Connect&lt;br&gt;&lt;/font&gt;" style="text;html=1;align=center;verticalAlign=middle;whiteSpace=wrap;rounded=0;fontSize=18;rotation=0;" vertex="1" parent="1">
                    <mxGeometry x="668" y="197" width="127" height="58" as="geometry"/>
                </mxCell>
                <mxCell id="17" value="" style="shape=singleArrow;whiteSpace=wrap;html=1;fontSize=20;fillColor=#d5e8d4;gradientColor=#97d077;strokeColor=#82b366;" vertex="1" parent="1">
                    <mxGeometry x="680" y="234.5" width="124" height="58" as="geometry"/>
                </mxCell>
            </root>
        </mxGraphModel>
    </diagram>
</mxfile>